<svg version="1.1" xmlns:svg="http://www.w3.org/2000/svg" xmlns="http://www.w3.org/2000/svg" xmlns:xlink="http://www.w3.org/1999/xlink" viewBox="0 0 173 41.51" width="250" height="59" >
<path fill="#1d1d1b" d="M21.85 3.2a2.71 2.71 0 112.7 2.71 2.7 2.7 0 01-2.7-2.71M21.85 37.35a2.71 2.71 0 112.7 2.71 2.7 2.7 0 01-2.7-2.71M27.19 11.74a2.7 2.7 0 112.7 2.71 2.7 2.7 0 01-2.7-2.71M27.19 28.82a2.7 2.7 0 112.7 2.7 2.7 2.7 0 01-2.7-2.7M32.52 20.28A2.71 2.71 0 1135.23 23a2.7 2.7 0 01-2.71-2.7M54.27 22.89v7.2H53l-2.84-6.24v6.24h-.82v-7.2h1.3l2.8 6.16v-6.16zm4.18 6.47a1.24 1.24 0 01-1.27.83c-1.06 0-1.37-.69-1.37-1.65 0-1.53 1.49-1.6 2.64-1.57 0-.67 0-1.4-.85-1.4a.74.74 0 00-.78.9h-.89c0-1.13.64-1.52 1.7-1.52 1.3 0 1.64.67 1.64 1.52v2.43a8 8 0 00.1 1.19h-.9zm-1.84-.76c0 .48.24.92.78.92s1.12-.31 1-1.93c-.74.01-1.78-.06-1.78 1.01zm4.47-3.55v-1l.82-.37v1.33H63v.62h-1.1v3.09c0 .31 0 .72.75.72h.37v.63c-.27 0-.54.08-.81.08-.78 0-1.13-.32-1.13-.9v-3.58h-.82v-.62zm2.85-2.16h.92v.88h-.92zm.87 7.2H64v-5h.82zm1.31-2.44c0-1.48.17-2.7 1.92-2.7s1.91 1.22 1.91 2.7c0 2.22-.85 2.54-1.91 2.54s-1.92-.32-1.92-2.54zm3-.35c0-1.38-.43-1.68-1-1.68S67 25.92 67 27.3c0 1.63.21 2.22 1.06 2.22s1.02-.59 1.02-2.22zM74 30.09V26.6c0-.54-.19-1-.89-1-.89 0-1 .8-1 1.49v3h-.82v-5.05h.87v.65a1.33 1.33 0 011.31-.69c1.08 0 1.35.65 1.35 1.65v3.49zm4.82-.73a1.24 1.24 0 01-1.27.83c-1.07 0-1.38-.69-1.38-1.65 0-1.53 1.5-1.6 2.65-1.57 0-.67 0-1.4-.85-1.4a.75.75 0 00-.79.9h-.89c0-1.13.64-1.52 1.71-1.52 1.29 0 1.63.67 1.63 1.52v2.43a8 8 0 00.1 1.19h-.9zM77 28.6c0 .48.24.92.79.92s1.11-.31 1-1.93C78 27.6 77 27.53 77 28.6zm5 1.49h-.82v-7.2H82zm2.21-2.25c0 1.4.38 1.68 1 1.68a.9.9 0 00.88-.95H87a1.53 1.53 0 01-1.75 1.62c-1.07 0-1.92-.32-1.92-2.54 0-1.48.17-2.7 1.92-2.7 1.43 0 1.79.79 1.79 2.46v.43zm2-.62c0-1.47-.41-1.65-1-1.65s-1 .25-1 1.65zm3.73 2.97c-1.09 0-1.77-.48-1.74-1.63h.93c0 .29 0 1 .84 1a.76.76 0 00.86-.76c0-.9-2.51-.92-2.51-2.43 0-.53.32-1.38 1.74-1.38.89 0 1.66.43 1.59 1.43h-.91a.7.7 0 00-.78-.81.69.69 0 00-.78.68c0 .89 2.51.87 2.51 2.41 0 1.06-.76 1.49-1.75 1.49zm4.88-.1v-7.2h3.57v.8h-2.66V26h2.52v.8h-2.52v3.29zm4.56-2.44c0-1.48.17-2.7 1.91-2.7s1.92 1.22 1.92 2.7c0 2.22-.85 2.54-1.92 2.54s-1.91-.32-1.91-2.54zm3-.35c0-1.38-.43-1.68-1.06-1.68s-1.06.3-1.06 1.68c0 1.63.21 2.22 1.06 2.22s1.03-.59 1.03-2.22zm2.99-1.49c.34-.77.76-.86 1.55-.86v.85h-.43c-.91 0-1.14.69-1.14 1.37v3h-.82v-5h.82zm4.15 4.38c-1.08 0-1.76-.48-1.73-1.63h.92c0 .29 0 1 .84 1 .49 0 .87-.25.87-.76 0-.9-2.51-.92-2.51-2.43 0-.53.32-1.38 1.73-1.38.9 0 1.67.43 1.6 1.43h-.91a.71.71 0 00-.79-.81.69.69 0 00-.78.68c0 .89 2.52.87 2.52 2.41 0 1.06-.76 1.49-1.76 1.49zm5.58-3.52c0-.83-.39-1.05-.7-1.05-.63 0-1.06.3-1.06 1.68 0 1.63.21 2.22 1.06 2.22.19 0 .76-.2.73-1.1h.87a1.59 1.59 0 01-1.59 1.77c-1.07 0-1.92-.32-1.92-2.54 0-1.48.17-2.7 1.92-2.7a1.45 1.45 0 011.59 1.72zm5 3.42v-3.41c0-.62-.19-1.06-.89-1.06s-1 .66-1 1.51v3h-.82v-7.2h.82v2.77a1.33 1.33 0 011.37-.75c.85 0 1.33.43 1.33 1.57v3.57zm4.96-5.04h.82v4c0 .35 0 .7.05 1.05h-.87v-.61a1.45 1.45 0 01-1.27.71 1.19 1.19 0 01-1.36-1.29v-3.86h.82v3.5c0 .6.28 1 .85 1a1 1 0 001-1.16zm5.05 5.04V26.6c0-.54-.19-1-.89-1-.89 0-1 .8-1 1.49v3h-.82v-5.05h.87v.65a1.34 1.34 0 011.34-.75c1.08 0 1.35.65 1.35 1.65v3.49zm4.89-5.04h.82v5.55c0 1.13-.75 1.4-1.86 1.4-.84 0-1.6-.42-1.53-1.35h.92a.7.7 0 00.77.73.81.81 0 00.88-.87v-1.05a1.26 1.26 0 01-1.11.63c-1.36 0-1.64-1.18-1.64-2.67 0-2.32 1.17-2.47 1.58-2.47a1.22 1.22 0 011.18.72zm-1 .58c-.93 0-1 1.12-1 1.79 0 1.61.37 2 1 2 1 0 1-1.16 1-1.86s.11-1.93-.92-1.93zm4.84 4.56c-1.08 0-1.76-.48-1.73-1.63h.89c0 .29 0 1 .83 1 .49 0 .87-.25.87-.76 0-.9-2.51-.92-2.51-2.43 0-.53.32-1.38 1.73-1.38.9 0 1.67.43 1.6 1.43h-.91a.71.71 0 00-.79-.81.69.69 0 00-.77.68c0 .89 2.51.87 2.51 2.41.04 1.06-.72 1.49-1.72 1.49zm5.86-4.39l-2.22 3.62h2.29v.67h-3.18v-.77l2.19-3.58h-2.08v-.67h3zm1.94 2.04c0 1.4.37 1.68 1 1.68a.9.9 0 00.88-.95h.9a1.53 1.53 0 01-1.76 1.62c-1.06 0-1.91-.32-1.91-2.54 0-1.48.17-2.7 1.91-2.7 1.44 0 1.8.79 1.8 2.46v.43zm2-.62c0-1.47-.41-1.65-1-1.65s-.94.25-1 1.65zm4.92 2.87V26.6c0-.54-.19-1-.89-1-.9 0-1 .8-1 1.49v3h-.82v-5.05h.87v.65A1.35 1.35 0 01153 25c1.07 0 1.34.65 1.34 1.65v3.49zm2.56-5.04v-1l.82-.37v1.33H158v.62h-1.1v3.09c0 .31 0 .72.75.72h.37v.63c-.27 0-.54.08-.81.08-.78 0-1.13-.32-1.13-.9v-3.58h-.82v-.62zm3.75.76c.34-.77.75-.86 1.55-.86v.85h-.44c-.9 0-1.13.69-1.13 1.37v3h-.82v-5h.82zm5.31-.76h.82v4c0 .35 0 .7.05 1.05h-.87v-.61a1.45 1.45 0 01-1.27.71 1.19 1.19 0 01-1.36-1.29v-3.86h.82v3.5c0 .6.28 1 .86 1a1 1 0 001-1.16zm4.82 5.04V26.6c0-.51-.14-1-.79-1a1 1 0 00-.71.34 1.5 1.5 0 00-.19.74v3.39h-.82v-5.05h.87v.63a1.21 1.21 0 011.25-.73 1.23 1.23 0 011.18.65A1.23 1.23 0 01172 25a1.19 1.19 0 011.37 1.31v3.83h-.81V26.6c0-.51-.14-1-.8-1a.74.74 0 00-.62.19 1.32 1.32 0 00-.28.89v3.39zM49.34 35v-1c0-1 .72-1.22 1.45-1.22a2.13 2.13 0 01.39 0v.59c-.87-.06-1 .31-1 .72V35h1v.62h-1v4.42h-.82v-4.39h-.77V35zm5.35 0h.82v4c0 .35 0 .7.05 1h-.87v-.61a1.45 1.45 0 01-1.28.71A1.19 1.19 0 0152 38.87V35h.82v3.49c0 .61.28 1 .86 1a1 1 0 001-1.17zm-1.32-.84h-.94v-1h.94zm1.75 0h-.93v-1h.93zm2.57 1.63c.34-.77.75-.86 1.55-.86v.85h-.44c-.9 0-1.13.69-1.13 1.37v3h-.82V35h.82zm6.66 3.55a1.24 1.24 0 01-1.27.83c-1.06 0-1.37-.69-1.37-1.66 0-1.52 1.49-1.59 2.64-1.56 0-.67 0-1.4-.85-1.4a.74.74 0 00-.78.9h-.89c0-1.13.64-1.52 1.7-1.52 1.3 0 1.64.67 1.64 1.52v2.42a8 8 0 00.1 1.2h-.9zm-1.84-.77c0 .49.23.93.78.93s1.12-.31 1-1.93c-.74.01-1.78-.06-1.78 1zm6.76 1.5v-3.49c0-.54-.19-1-.89-1-.9 0-1 .8-1 1.49v3h-.82v-5h.87v.65a1.33 1.33 0 011.35-.75c1.07 0 1.34.65 1.34 1.65v3.49zM74 35h.82v5.55C74.85 41.71 74.1 42 73 42c-.83 0-1.59-.41-1.52-1.34h.92a.7.7 0 00.76.73.81.81 0 00.88-.87v-1.08a1.26 1.26 0 01-1.11.63c-1.36 0-1.63-1.18-1.63-2.67 0-2.32 1.16-2.47 1.57-2.47a1.22 1.22 0 011.18.72zm-1 .58c-.92 0-.95 1.12-.95 1.79 0 1.61.36 2 1 2 1 0 1-1.17 1-1.86s.05-1.9-.98-1.9zm4 2.24c0 1.4.38 1.68 1 1.68a.91.91 0 00.88-1h.89A1.53 1.53 0 0178 40.17c-1.07 0-1.92-.32-1.92-2.54 0-1.48.17-2.7 1.92-2.7 1.43 0 1.79.79 1.79 2.46v.43zm2-.62c0-1.47-.41-1.65-1-1.65s-1 .25-1 1.65zm1.46-2.2h.91l.91 4.34L83.41 35h1.16l1 4.34 1-4.34h.87l-1.34 5H85l-1-4.22-1.12 4.29h-1.1zm10.34 4.34a1.24 1.24 0 01-1.27.83c-1.06 0-1.37-.69-1.37-1.66 0-1.52 1.49-1.59 2.64-1.56 0-.67 0-1.4-.85-1.4a.75.75 0 00-.79.9h-.88c0-1.13.63-1.52 1.7-1.52 1.3 0 1.64.67 1.64 1.52v2.42a8 8 0 00.1 1.2h-.9zm-1.8-.77c0 .49.23.93.78.93s1.12-.31 1-1.93c-.78.01-1.78-.06-1.78 1zm6.71 1.5v-3.49c0-.54-.19-1-.88-1-.9 0-1 .8-1 1.49v3H93v-5h.87v.65a1.33 1.33 0 011.35-.75c1.07 0 1.34.65 1.34 1.65v3.49zm4.81-7.2h.81v7.2h-.81v-.6a1.25 1.25 0 01-1.16.7c-.81 0-1.63-.32-1.63-2.53 0-1.26 0-2.71 1.67-2.71a1.28 1.28 0 011.11.61zm-1 2.73c-.88 0-1 .7-1 2 0 .75 0 1.85 1 1.85s.92-1.14.92-2.15c.08-.62.04-1.7-.87-1.7zM103 35v-1l.82-.37V35h1.09v.62h-1.09v3.08c0 .32 0 .73.74.73h.37v.63c-.27 0-.54.08-.81.08-.77 0-1.12-.32-1.12-.9v-3.59h-.83V35zm3.46 2.82c0 1.4.38 1.68 1 1.68a.91.91 0 00.88-1h.9a1.54 1.54 0 01-1.76 1.63c-1.07 0-1.91-.32-1.91-2.54 0-1.48.16-2.7 1.91-2.7 1.44 0 1.8.79 1.8 2.46v.43zm2-.62c0-1.47-.41-1.65-1-1.65s-1 .25-1 1.65zm7.05-2.35a1.65 1.65 0 00-.21-1 1.2 1.2 0 00-.81-.31 1.12 1.12 0 00-1.08.56c0 .08-.21.26-.21 1.49v1.93c0 1.76.58 2 1.28 2 .28 0 1.13-.1 1.14-1.5h.95c0 2.27-1.57 2.27-2 2.27-.89 0-2.27-.06-2.27-2.85v-2c0-2 .9-2.61 2.31-2.61s2 .74 1.89 2.13zm3.93 4.28l1.21-4.1h.88L119.27 42h-.85l.57-1.9-1.7-5h.94zm3.82.94h-.82v-7.2h.82v2.67a1.28 1.28 0 011.11-.61c1.62 0 1.66 1.45 1.66 2.71 0 2.21-.82 2.53-1.62 2.53a1.25 1.25 0 01-1.16-.7zm.92-.57c1 0 1-1.1 1-1.85 0-1.35-.11-2-1-2s-.95 1.08-.95 1.75-.06 2.1.95 2.1zm3.82-1.68c0 1.4.38 1.68 1 1.68a.91.91 0 00.88-1h.9a1.54 1.54 0 01-1.76 1.63c-1.06 0-1.91-.32-1.91-2.54 0-1.48.17-2.7 1.91-2.7 1.44 0 1.8.79 1.8 2.46v.43zm2-.62c0-1.47-.41-1.65-1-1.65s-.94.25-.95 1.65zm2.89-1.41c.33-.77.75-.86 1.55-.86v.85H134c-.91 0-1.14.69-1.14 1.37v3h-.81V35h.81zm4 4.38c-1.09 0-1.77-.48-1.73-1.64h.92c0 .29 0 1 .84 1 .49 0 .87-.25.87-.77 0-.89-2.52-.91-2.52-2.42 0-.53.32-1.38 1.74-1.38.9 0 1.67.43 1.6 1.43h-.91a.71.71 0 00-.79-.81.69.69 0 00-.78.68c0 .89 2.52.87 2.52 2.4 0 1.08-.76 1.51-1.76 1.51zm2.77-7.3h.92v.88h-.92zm.87 7.2h-.82V35h.82zm3.84-3.42c0-.83-.38-1-.69-1-.63 0-1.06.3-1.06 1.68 0 1.63.21 2.22 1.06 2.22.19 0 .75-.2.73-1.11h.85a1.59 1.59 0 01-1.58 1.78c-1.07 0-1.92-.32-1.92-2.54 0-1.48.17-2.7 1.92-2.7a1.44 1.44 0 011.54 1.72zm4.85 3.42v-3.41c0-.62-.2-1.06-.89-1.06s-1 .66-1 1.51v3h-.82v-7.2h.82v2.81a1.32 1.32 0 011.36-.75c.86 0 1.34.43 1.34 1.57v3.57zm2.9-2.25c0 1.4.38 1.68 1 1.68a.89.89 0 00.87-1h.9a1.53 1.53 0 01-1.75 1.63c-1.07 0-1.92-.32-1.92-2.54 0-1.48.17-2.7 1.92-2.7 1.43 0 1.79.79 1.79 2.46v.43zm2-.62c0-1.47-.4-1.65-1-1.65s-1 .25-1 1.65zm2.88-1.41c.34-.77.76-.86 1.56-.86v.85h-.44c-.91 0-1.14.69-1.14 1.37v3h-.81V35h.83zm5.22 4.28v-3.41c0-.62-.2-1.06-.9-1.06s-1 .66-1 1.51v3h-.82v-7.2h.82v2.81a1.33 1.33 0 011.37-.75c.85 0 1.33.43 1.33 1.57v3.57zm2.89-2.25c0 1.4.38 1.68 1 1.68a.91.91 0 00.88-1h.9a1.54 1.54 0 01-1.76 1.63c-1.07 0-1.91-.32-1.91-2.54 0-1.48.17-2.7 1.91-2.7 1.44 0 1.8.79 1.8 2.46v.43zm2-.62c0-1.47-.41-1.65-1-1.65s-.95.25-1 1.65zm1.98-4.33h.91v.88h-.91zm.86 7.2h-.81V35h.86zm1.61-5.07v-1l.82-.37V35h1.1v.62h-1.1v3.08c0 .32 0 .73.75.73h.37v.63c-.27 0-.54.08-.81.08-.78 0-1.13-.32-1.13-.9v-3.59h-.82V35zM55.82.5H59l6.52 16.92h-3.21L60.72 13H54l-1.59 4.47h-3.08zm-1 10.19h5.16l-2.57-7.27h-.07zM63.86.5h13.7v2.56h-5.38v14.36h-3V3.06h-5.32zM80.1.5h3v6.73h7.7V.5h3v16.92h-3V9.79h-7.7v7.63h-3zm17.56 0h12.18v2.56h-9.22v4.43h8.53v2.42h-8.53v5H110v2.55H97.66zm16.09 0h3.13l7.73 12.5V.5h2.82v16.92h-3.13L116.64 5h-.07v12.42h-2.82zm17.66 0h12.19v2.56h-9.22v4.43h8.53v2.42h-8.53v5h9.38v2.55h-12.35z" transform="translate(-0.5, -0.49)"></path><path fill="#9d9d9c" d="M.5 3.2a2.71 2.71 0 112.71 2.71A2.7 2.7 0 01.5 3.2M11.17 3.2a2.71 2.71 0 112.71 2.71 2.7 2.7 0 01-2.71-2.71M11.17 37.35a2.71 2.71 0 112.71 2.71 2.7 2.7 0 01-2.71-2.71m-10.67 0a2.71 2.71 0 112.71 2.71A2.7 2.7 0 01.5 37.35M16.51 11.74a2.71 2.71 0 112.7 2.71 2.7 2.7 0 01-2.7-2.71m-10.67 0a2.71 2.71 0 112.7 2.71 2.7 2.7 0 01-2.7-2.71M16.51 28.82a2.71 2.71 0 112.7 2.7 2.7 2.7 0 01-2.7-2.7m-10.67 0a2.71 2.71 0 112.7 2.7 2.7 2.7 0 01-2.7-2.7M21.85 20.28a2.71 2.71 0 112.7 2.7 2.7 2.7 0 01-2.7-2.7m-10.68 0A2.71 2.71 0 1113.88 23a2.7 2.7 0 01-2.71-2.7" transform="translate(-0.5, -0.49)"></path>
</svg>
